<svg xmlns="http://www.w3.org/2000/svg" xmlns:xlink="http://www.w3.org/1999/xlink" width="400" height="120" viewBox="0 0 400 120">
  <g transform="matrix(1, 0, 0, 1, 8.072571, 5.045357)">
    <svg x="0" y="0" width="100" height="112" viewBox="10.938 4.687 78.134 90.626">
      <g fill="#000000">
        <path d="M88.016 27.078a4.704 4.704 0 0 0-3.156-1.719L62.5 23.015V9.375a4.701 4.701 0 0 0-4.687-4.688H15.625a4.701 4.701 0 0 0-4.687 4.687v60.938A4.701 4.701 0 0 0 15.625 75h16.891l-1.125 10.719c-.265 2.562 1.61 4.875 4.172 5.156l41.953 4.406c.172.016.328.032.5.032a4.63 4.63 0 0 0 2.938-1.047 4.704 4.704 0 0 0 1.719-3.157L89.046 30.5a4.692 4.692 0 0 0-1.015-3.437zM15.625 71.875c-.86 0-1.563-.703-1.563-1.563V9.374c0-.859.704-1.562 1.563-1.562h42.188c.86 0 1.563.703 1.563 1.562v13.312l-16.47-1.734a4.692 4.692 0 0 0-5.156 4.172l-4.906 46.75zm63.938 18.906c-.047.422-.25.781-.578 1.047s-.734.375-1.14.344L35.89 87.765a1.562 1.562 0 0 1-1.39-1.718l6.375-60.61c.047-.421.25-.78.562-1.046a1.53 1.53 0 0 1 1.14-.344l41.954 4.406c.422.047.781.25 1.047.563.265.328.39.734.343 1.14l-6.375 60.61z" style="fill: rgb(255, 255, 255);"></path>
      </g>
    </svg>
  </g>
  <g transform="translate(120, 30)">
    <svg x="0" y="0" width="272.79" height="56.17" viewBox="0.86 -54.88 272.79 56.17">
      <g fill="#000000">
        <path d="M26.76 0L26.76 -43.05L39.88 -43.05L39.88 -53.6L0.86 -53.6L0.86 -43.05L13.98 -43.05L13.98 0Z M82.15 0.77C84.56 0.43 86.81 -0.14 88.93 -0.94L87.81 -11.58C83.7 -10.21 79.21 -9.52 74.35 -9.52C71.49 -9.52 68.66 -9.83 65.86 -10.46L65.86 -37.99C65.86 -40.45 66.5 -42.11 67.79 -42.96C69.08 -43.82 71.35 -44.25 74.61 -44.25C76.15 -44.25 78.11 -44.09 80.48 -43.78C82.86 -43.46 84.93 -43.08 86.7 -42.62L88.33 -52.91C86.96 -53.48 84.93 -53.96 82.24 -54.33C79.55 -54.7 77.12 -54.88 74.95 -54.88C68.89 -54.88 64.25 -54.06 61.02 -52.4C57.79 -50.74 55.5 -47.92 54.16 -43.95C52.81 -39.98 52.14 -34.25 52.14 -26.76C52.14 -19.32 52.77 -13.62 54.03 -9.65C55.28 -5.67 57.44 -2.86 60.5 -1.2C63.56 0.46 67.95 1.29 73.67 1.29C76.92 1.29 79.75 1.11 82.15 0.77Z M148.62 -53.6L135.84 -53.6L135.84 -31.47L118.17 -31.47L118.17 -53.6L105.39 -53.6L105.39 0L118.17 0L118.17 -21.87L135.84 -21.87L135.84 0L148.62 0Z M176.74 -0.34C179.83 0.74 184.41 1.29 190.47 1.29C196.53 1.29 201.1 0.74 204.19 -0.34C207.27 -1.43 209.45 -3.34 210.7 -6.09C211.96 -8.83 212.59 -12.83 212.59 -18.09L212.59 -53.6L199.81 -53.6L199.81 -14.15C199.81 -12.89 199.57 -11.95 199.08 -11.32C198.6 -10.69 197.74 -10.25 196.51 -9.99C195.28 -9.73 193.41 -9.6 190.89 -9.6L181.2 -9.6L181.2 -53.6L168.43 -53.6L168.43 -18.09C168.43 -12.78 169.04 -8.76 170.27 -6.05C171.5 -3.33 173.66 -1.43 176.74 -0.34Z M271.42 -22.64C269.93 -24.81 267.93 -26.27 265.42 -27.01L265.42 -27.53C267.25 -28.67 268.63 -30.3 269.58 -32.42C270.52 -34.53 270.99 -37.02 270.99 -39.88C270.99 -44.62 269.7 -48.1 267.13 -50.3C264.56 -52.5 260.47 -53.6 254.87 -53.6L232.4 -53.6L232.4 0L257.7 0C262.84 0 266.79 -1.3 269.53 -3.9C272.28 -6.5 273.65 -10.23 273.65 -15.09C273.65 -17.95 272.91 -20.47 271.42 -22.64ZM257.18 -42.96C257.93 -42.05 258.3 -40.36 258.3 -37.9C258.3 -35.5 257.91 -33.85 257.14 -32.93C256.37 -32.02 254.98 -31.56 252.98 -31.56L245.26 -31.56L245.26 -44.34L253.07 -44.34C255.07 -44.34 256.44 -43.88 257.18 -42.96ZM259.46 -10.85C258.63 -9.79 257.21 -9.26 255.21 -9.26L245.26 -9.26L245.26 -22.64L255.3 -22.64C257.3 -22.64 258.7 -22.15 259.5 -21.18C260.3 -20.21 260.7 -18.55 260.7 -16.21C260.7 -13.69 260.29 -11.91 259.46 -10.85Z" style="fill: rgb(255, 255, 255);"></path>
      </g>
    </svg>
  </g>
  <path d="M 41.561 31.204 L 44.072 35.664 L 42.587 62.224 L 41.561 61.753 L 40.524 62.224 L 29.884 67.097 L 31.239 55.478 L 31.368 54.348 L 30.602 53.524 L 22.673 44.919 L 34.149 42.612 L 35.269 42.388 L 35.823 41.399 L 41.561 31.204 M 41.561 26.166 L 33.666 40.186 L 17.877 43.353 L 28.776 55.196 L 26.927 71.17 L 41.561 64.472 L 45.509 33.176 L 41.561 26.166 Z" style="stroke-width: 1; transform-origin: 41.562px 48.668px; fill: rgb(255, 255, 255);" transform="matrix(1, 0.000075, -0.000075, 1, 0, 0)"></path>
  <path d="M 70.867 52.672 L 76.606 62.867 L 77.16 63.856 L 78.279 64.08 L 89.757 66.387 L 81.826 74.992 L 81.06 75.816 L 81.19 76.946 L 82.545 88.565 L 71.893 83.692 L 70.867 83.221 L 69.83 83.692 L 59.19 88.565 L 60.545 76.946 L 60.674 75.816 L 59.908 74.992 L 51.979 66.387 L 63.455 64.08 L 64.575 63.856 L 65.129 62.867 L 70.867 52.672 M 70.867 47.634 L 62.972 61.654 L 47.183 64.821 L 58.082 76.664 L 56.233 92.638 L 70.867 85.94 L 85.503 92.638 L 83.641 76.664 L 94.553 64.821 L 78.763 61.654 L 70.867 47.634 Z" style="stroke-width: 1; transform-box: fill-box; transform-origin: 50% 50%; fill: rgb(255, 255, 255);" transform="matrix(0.994029, 0.109115, -0.109115, 0.994029, 0, -0.000001)"></path>
</svg>